<?xml version="1.0" standalone="no"?><!DOCTYPE svg PUBLIC "-//W3C//DTD SVG 1.1//EN" "http://www.w3.org/Graphics/SVG/1.1/DTD/svg11.dtd"><svg t="1706161991772" class="icon" viewBox="0 0 1024 1024" version="1.1" xmlns="http://www.w3.org/2000/svg" p-id="5766" xmlns:xlink="http://www.w3.org/1999/xlink" width="32" height="32"><path d="M920.1 291.8h-820c-18.8 0-34-15.2-34-34s15.2-34 34-34h820c18.8 0 34 15.2 34 34s-15.2 34-34 34zM549.1 547.2h-449c-18.8 0-34-15.2-34-34s15.2-34 34-34h449c18.8 0 34 15.2 34 34s-15.2 34-34 34zM783.4 812.4H100.1c-18.8 0-34-15.2-34-34s15.2-34 34-34h683.3c18.8 0 34 15.2 34 34s-15.2 34-34 34z" fill="#707070" p-id="5767"></path></svg>