<?xml version="1.0" standalone="no"?><!DOCTYPE svg PUBLIC "-//W3C//DTD SVG 1.1//EN" "http://www.w3.org/Graphics/SVG/1.1/DTD/svg11.dtd"><svg class="icon" width="32px" height="32.00px" viewBox="0 0 1024 1024" version="1.1" xmlns="http://www.w3.org/2000/svg"><path d="M788 76c34.794 0 63 28.206 63 63v154c0 34.794-28.206 63-63 63s-63-28.206-63-63V139c0-34.794 28.206-63 63-63z" fill="#333333" /><path d="M387.877 894.9V761.185c-0.001-33.884 27.572-61.413 61.725-61.626h125.405c34.306 0 62.116 27.59 62.116 61.626v133.327c0 29.39 23.9 53.274 53.522 53.488h85.557c39.958 0.102 78.315-15.574 106.607-43.57C911.1 876.437 927 838.423 927 798.78V418.95c0-32.021-14.308-62.397-39.067-82.941l-290.658-230.61c-50.807-40.337-123.373-39.034-172.676 3.1l-284.407 227.51C114.263 355.948 98.766 386.413 98 418.95v379.441C98 881.018 165.515 948 248.798 948h83.604c14.262 0.102 27.976-5.447 38.098-15.416 10.122-9.97 15.814-23.534 15.814-37.684h1.563z" fill="#1C9DFF" /></svg>