<?xml version="1.0" standalone="no"?><!DOCTYPE svg PUBLIC "-//W3C//DTD SVG 1.1//EN" "http://www.w3.org/Graphics/SVG/1.1/DTD/svg11.dtd"><svg class="icon" width="32px" height="32.00px" viewBox="0 0 1024 1024" version="1.1" xmlns="http://www.w3.org/2000/svg"><path fill="#8a8a8a" d="M899.71451 499.952941L522.039216 130.509804a15.058824 15.058824 0 0 0-20.078432 0L124.28549 499.952941a15.058824 15.058824 0 0 0 10.641569 25.901177 14.054902 14.054902 0 0 0 10.440784-3.814902l69.672157-68.065883V843.294118a54.613333 54.613333 0 0 0 54.613333 54.412549h76.29804A74.290196 74.290196 0 0 0 420.040784 823.215686v-176.89098h183.918432V823.215686a74.290196 74.290196 0 0 0 74.089411 74.290196h76.29804a54.613333 54.613333 0 0 0 54.613333-54.211764V453.37098L878.632157 522.039216a15.058824 15.058824 0 0 0 21.283137 0 15.058824 15.058824 0 0 0-0.200784-22.086275z m-120.470588 343.341177a24.495686 24.495686 0 0 1-24.495687 24.294902h-76.298039A44.172549 44.172549 0 0 1 634.076863 823.215686v-191.949804a15.058824 15.058824 0 0 0-15.058824-15.058823H404.981961a15.058824 15.058824 0 0 0-15.058824 15.058823V823.215686a44.172549 44.172549 0 0 1-43.971764 44.172549h-76.29804a24.495686 24.495686 0 0 1-24.495686-24.094117V423.855686l266.842353-261.019608 266.842353 261.019608z"  /></svg>