<?xml version="1.0" standalone="no"?><!DOCTYPE svg PUBLIC "-//W3C//DTD SVG 1.1//EN" "http://www.w3.org/Graphics/SVG/1.1/DTD/svg11.dtd"><svg class="icon" width="32px" height="32.00px" viewBox="0 0 1024 1024" version="1.1" xmlns="http://www.w3.org/2000/svg"><path fill="#8a8a8a" d="M491.999078 908.098297c118.199778-3.199994 216.399594-43.699918 294.399448-121.799771S904.998303 610.198856 908.098297 491.999078c-3.199994-118.199778-43.699918-216.399594-121.799771-294.399448-77.999854-77.999854-176.09967-118.599778-294.299448-121.799772-118.199778 3.199994-216.399594 43.699918-294.399448 121.799772-77.999854 77.999854-118.599778 176.09967-121.799772 294.399448 3.199994 118.199778 43.699918 216.399594 121.799772 294.399448 77.999854 77.899854 176.19967 118.499778 294.399448 121.699771z m373.599299-95.69982l147.799723 147.799723c7.099987 7.899985 10.59998 16.799969 10.59998 26.59995s-3.699993 18.499965-11.199979 25.999951c-7.499986 7.499986-16.19997 11.299979-25.999951 11.199979-9.899981 0-18.699965-3.599993-26.59995-10.59998L812.298477 865.598377c-104.799804 85.899839-221.099585 125.099765-348.799346 117.59978-127.699761-7.499986-238.399553-59.699888-332.199377-156.699707C41.499922 724.898641-2.299996 610.198856 0.1 482.499095c2.399996-127.699761 50.499905-240.399549 144.299729-338.099366C242.099546 50.499905 354.799335 2.499995 482.499095 0.1c127.699761-2.399996 242.399546 41.399922 344.099355 131.199754 96.999818 93.799824 149.19972 204.499617 156.699706 332.199377s-31.79994 243.999543-117.699779 348.899346z"  /></svg>