<?xml version="1.0" standalone="no"?><!DOCTYPE svg PUBLIC "-//W3C//DTD SVG 1.1//EN" "http://www.w3.org/Graphics/SVG/1.1/DTD/svg11.dtd"><svg class="icon" width="32px" height="32.00px" viewBox="0 0 1024 1024" version="1.1" xmlns="http://www.w3.org/2000/svg"><path fill="#8a8a8a" d="M498 529.7c-128 0-232-104.1-232-232.1S370 65.5 498 65.5s232.1 104.1 232.1 232.1S625.9 529.7 498 529.7z m0-395.6c-90.1 0-163.5 73.4-163.5 163.5S407.8 461.1 498 461.1s163.5-73.4 163.5-163.5S588.2 134.1 498 134.1z"  /><path fill="#8a8a8a" d="M865.3 956.9c-18.9 0-34.3-15.3-34.3-34.3 0-150.9-139.6-326.4-319.7-326.4S191.6 771.6 191.6 922.6c0 18.9-15.4 34.3-34.3 34.3S123 941.5 123 922.6c0-186.4 166.1-395 388.3-395 222.2 0 388.3 208.5 388.3 395 0 18.9-15.4 34.3-34.3 34.3z"  /></svg>